<svg width="1600" height="900" viewBox="0 0 1600 900" fill="none" xmlns="http://www.w3.org/2000/svg">
  <defs>
    <linearGradient id="bg" x1="170" y1="110" x2="1365" y2="848" gradientUnits="userSpaceOnUse">
      <stop stop-color="#CED0CC"/>
      <stop offset="1" stop-color="#767B78"/>
    </linearGradient>
    <linearGradient id="floor" x1="570" y1="500" x2="1030" y2="901" gradientUnits="userSpaceOnUse">
      <stop stop-color="#566257"/>
      <stop offset="1" stop-color="#283029"/>
    </linearGradient>
    <linearGradient id="metal" x1="0" y1="0" x2="1" y2="1">
      <stop stop-color="#FBFFFF"/>
      <stop offset="0.4" stop-color="#B6C1C6"/>
      <stop offset="0.7" stop-color="#EFF5F6"/>
      <stop offset="1" stop-color="#85939A"/>
    </linearGradient>
    <linearGradient id="beam" x1="220" y1="130" x2="575" y2="500" gradientUnits="userSpaceOnUse">
      <stop stop-color="#FFD974" stop-opacity="0.75"/>
      <stop offset="1" stop-color="#FFD974" stop-opacity="0"/>
    </linearGradient>
    <filter id="shadow" x="0" y="0" width="1600" height="900" filterUnits="userSpaceOnUse" color-interpolation-filters="sRGB">
      <feDropShadow dx="0" dy="18" stdDeviation="16" flood-color="#20211E" flood-opacity="0.22"/>
    </filter>
  </defs>

  <rect width="1600" height="900" fill="#E8E0D2"/>
  <rect x="84" y="82" width="1432" height="736" rx="34" fill="url(#bg)"/>

  <rect x="84" y="82" width="1432" height="130" rx="34" fill="#595F5E"/>
  <rect x="84" y="174" width="1432" height="25" fill="#808785"/>
  <path d="M0 620L1600 535V900H0V620Z" fill="url(#floor)"/>

  <rect x="84" y="212" width="206" height="315" fill="#D7D7D1"/>
  <rect x="96" y="226" width="82" height="287" fill="#F4F2E9"/>
  <rect x="188" y="226" width="90" height="287" fill="#DBD8CF"/>
  <rect x="96" y="226" width="182" height="48" fill="#EDE7DA"/>
  <path d="M102 214L568 602H312L84 460V212H102Z" fill="url(#beam)"/>

  <g opacity="0.92">
    <rect x="112" y="150" width="282" height="28" rx="14" transform="rotate(30 112 150)" fill="url(#metal)"/>
    <rect x="310" y="198" width="472" height="26" rx="13" fill="url(#metal)"/>
    <rect x="858" y="132" width="536" height="52" rx="26" fill="url(#metal)"/>
    <rect x="1040" y="175" width="54" height="220" rx="27" fill="url(#metal)"/>
    <rect x="1122" y="175" width="54" height="220" rx="27" fill="url(#metal)"/>
    <rect x="1204" y="175" width="54" height="220" rx="27" fill="url(#metal)"/>
  </g>

  <rect x="364" y="348" width="760" height="210" rx="10" fill="#ADB1AD"/>
  <rect x="364" y="348" width="760" height="12" fill="#D8DBD7" opacity="0.65"/>

  <g filter="url(#shadow)">
    <rect x="398" y="474" width="84" height="28" rx="4" fill="url(#metal)"/>
    <rect x="396" y="502" width="88" height="22" rx="4" fill="#6F7D84"/>
    <rect x="396" y="524" width="88" height="26" rx="4" fill="url(#metal)"/>

    <rect x="482" y="474" width="120" height="76" rx="4" fill="url(#metal)"/>
    <rect x="602" y="474" width="96" height="76" rx="4" fill="url(#metal)"/>
    <rect x="628" y="494" width="44" height="34" rx="6" fill="#8C9AA1"/>
    <ellipse cx="650" cy="511" rx="16" ry="10" fill="#6F7D84"/>

    <rect x="698" y="474" width="132" height="76" rx="4" fill="url(#metal)"/>
    <rect x="830" y="474" width="120" height="76" rx="4" fill="url(#metal)"/>
    <rect x="950" y="474" width="140" height="76" rx="4" fill="url(#metal)"/>
  </g>

  <g opacity="0.9">
    <rect x="512" y="392" width="430" height="10" rx="5" fill="url(#metal)"/>
    <path d="M568 402V440" stroke="#C4CFD3" stroke-width="5"/>
    <path d="M612 402V444" stroke="#C4CFD3" stroke-width="5"/>
    <path d="M668 402V438" stroke="#C4CFD3" stroke-width="5"/>
    <path d="M734 402V450" stroke="#C4CFD3" stroke-width="5"/>
    <path d="M790 402V438" stroke="#C4CFD3" stroke-width="5"/>
    <circle cx="568" cy="448" r="10" fill="url(#metal)"/>
    <rect x="604" y="444" width="18" height="12" rx="3" fill="url(#metal)"/>
    <rect x="656" y="440" width="24" height="20" rx="4" fill="url(#metal)"/>
    <path d="M725 450L743 436L752 450H725Z" fill="url(#metal)"/>
    <rect x="782" y="438" width="18" height="24" rx="4" fill="url(#metal)"/>
  </g>

  <g filter="url(#shadow)">
    <rect x="612" y="650" width="364" height="48" rx="6" fill="url(#metal)"/>
    <rect x="628" y="698" width="18" height="88" rx="6" fill="#AEBAC0"/>
    <rect x="944" y="698" width="18" height="88" rx="6" fill="#AEBAC0"/>
    <rect x="662" y="698" width="18" height="88" rx="6" fill="#AEBAC0"/>
    <rect x="910" y="698" width="18" height="88" rx="6" fill="#AEBAC0"/>
  </g>

  <rect x="1184" y="390" width="16" height="220" fill="#5E6663"/>
  <rect x="1266" y="390" width="148" height="208" rx="6" fill="url(#metal)"/>
  <rect x="1266" y="390" width="148" height="14" rx="6" fill="#DEE4E6"/>

  <path d="M134 814C394 735 642 718 1518 774V900H84L134 814Z" fill="rgba(255,255,255,0.12)"/>

  <text x="120" y="760" fill="#F7F1E8" font-family="Georgia, serif" font-size="34" letter-spacing="0.12em">KITCHEN ADAPTATION</text>
  <text x="120" y="802" fill="#E9E4DB" font-family="Georgia, serif" font-size="20">серый фронт, хромированная рабочая линия, рейл, отдельный стол, закатный луч</text>
</svg>
